<?xml version="1.0" standalone="no"?>
<!DOCTYPE svg PUBLIC "-//W3C//DTD SVG 1.1//EN" "http://www.w3.org/Graphics/SVG/1.1/DTD/svg11.dtd" >
<svg xmlns="http://www.w3.org/2000/svg">
<metadata></metadata>
<defs>
<font id="news_gothic_demiregular" horiz-adv-x="1024" >
<font-face units-per-em="2048" ascent="1638" descent="-410" />
<missing-glyph horiz-adv-x="618" />
<glyph horiz-adv-x="2048" />
<glyph horiz-adv-x="2048" />
<glyph unicode="&#xd;" horiz-adv-x="2048" />
<glyph unicode=" "  horiz-adv-x="618" />
<glyph unicode="&#x09;" horiz-adv-x="618" />
<glyph unicode="&#xa0;" horiz-adv-x="618" />
<glyph unicode="!" horiz-adv-x="647" d="M201 1485h237l-49 -998h-139zM203 0v260h233v-260h-233z" />
<glyph unicode="&#x22;" horiz-adv-x="614" d="M90 881v555h139v-555h-139zM385 881v555h139v-555h-139z" />
<glyph unicode="#" horiz-adv-x="1574" d="M88 449l53 145h310l92 264h-330l51 146h332l162 454h166l-162 -454h256l164 454h164l-160 -454h301l-51 -146h-303l-93 -264h322l-51 -145h-322l-162 -453h-165l161 453h-258l-162 -453h-165l159 453h-309zM616 594h261l92 264h-260z" />
<glyph unicode="$" horiz-adv-x="1236" d="M106 260l138 121q125 -196 313 -217v518q-220 59 -323 155.5t-103 249.5q0 173 111.5 277t314.5 117v137h121v-137q251 -17 409 -234l-135 -121q-110 180 -274 191v-475q233 -57 341.5 -162t108.5 -277q0 -177 -120 -286.5t-330 -118.5v-199h-121v199q-292 21 -451 262z M311 1108q0 -85 59 -139t187 -90v444q-118 -6 -182 -62.5t-64 -152.5zM678 162q125 4 194.5 65t69.5 164q0 96 -65 159t-199 97v-485z" />
<glyph unicode="%" horiz-adv-x="1767" d="M88 1151q0 145 102 248.5t248 103.5q148 0 250.5 -102t102.5 -250q0 -146 -104 -248t-249 -102q-142 0 -246 103.5t-104 246.5zM248 1153q0 -77 58 -134.5t134 -57.5q78 0 134.5 57t56.5 135q0 79 -55.5 134.5t-135.5 55.5q-78 0 -135 -56t-57 -134zM381 -25l862 1530 h139l-862 -1530h-139zM973 328q0 145 103 248.5t249 103.5q148 0 249 -102t101 -250q0 -146 -102.5 -249.5t-247.5 -103.5q-142 0 -247 105t-105 248zM1133 328q0 -76 57.5 -133.5t134.5 -57.5q78 0 135.5 56.5t57.5 134.5q0 79 -56.5 135.5t-136.5 56.5q-78 0 -135 -57 t-57 -135z" />
<glyph unicode="&#x26;" horiz-adv-x="1327" d="M78 401q0 131 70 235t217 195q-115 168 -115 334q0 158 87.5 249t237.5 91q154 0 241 -81.5t87 -223.5q0 -116 -68.5 -217t-209.5 -197q124 -195 295 -366q90 147 127 323l180 -41q-50 -235 -174 -407q105 -92 219 -107v-206q-96 4 -179 42t-165 113q-190 -166 -410 -166 q-202 0 -321 118.5t-119 311.5zM281 410q0 -106 74 -179t188 -73q135 0 245 110q-172 169 -327 414q-180 -115 -180 -272zM436 1192q0 -114 88 -268q197 120 197 284q0 73 -38 114.5t-103 41.5t-104.5 -46.5t-39.5 -125.5z" />
<glyph unicode="'" horiz-adv-x="317" d="M90 881v555h139v-555h-139z" />
<glyph unicode="(" horiz-adv-x="667" d="M109 668q0 442 282 837h193q-148 -206 -218.5 -409t-70.5 -428q0 -226 71 -431t218 -409h-193q-282 395 -282 840z" />
<glyph unicode=")" horiz-adv-x="667" d="M82 -172q147 205 218 410t71 430t-70.5 428t-218.5 409h190q283 -396 283 -837q0 -444 -283 -840h-190z" />
<glyph unicode="*" d="M96 1114l54 170l315 -149l-35 350h164l-35 -350l315 149l54 -170l-340 -67l239 -254l-145 -109l-170 307l-170 -307l-145 109l239 254z" />
<glyph unicode="+" horiz-adv-x="1705" d="M254 541v139h528v541h142v-541h528v-139h-528v-541h-142v541h-528z" />
<glyph unicode="," horiz-adv-x="618" d="M190 -305l107 315h-98v248h235v-270l-131 -295z" />
<glyph unicode="-" horiz-adv-x="675" d="M92 449v174h481v-174h-481z" />
<glyph unicode="." horiz-adv-x="618" d="M193 0v256h233v-256h-233z" />
<glyph unicode="/" horiz-adv-x="557" d="M-92 -190l551 1695h135l-551 -1695h-135z" />
<glyph unicode="0" horiz-adv-x="1236" d="M94 741q0 376 134 570t390 194t389.5 -193.5t133.5 -570.5t-133.5 -571.5t-389.5 -194.5t-390 194.5t-134 571.5zM299 741q0 -292 81 -440.5t238 -148.5t237.5 148t80.5 441t-80.5 441.5t-237.5 148.5q-156 0 -237.5 -149t-81.5 -441z" />
<glyph unicode="1" horiz-adv-x="1236" d="M262 1262v133q173 39 322 110h141v-1339h238v-166h-676v166h241v1118z" />
<glyph unicode="2" horiz-adv-x="1236" d="M106 0v195q117 223 332 389q196 150 240 189q135 117 171 217q17 49 17 102q0 108 -67.5 174.5t-177.5 66.5q-123 0 -205 -73.5t-105 -206.5l-192 39q40 196 170 304.5t323 108.5q215 0 338 -114t123 -308q0 -81 -24.5 -150t-79.5 -135.5t-118.5 -122t-166.5 -132.5 q-167 -126 -253.5 -205.5t-121.5 -157.5h764v-180h-967z" />
<glyph unicode="3" horiz-adv-x="1236" d="M57 268l166 109q132 -225 352 -225q137 0 217 72.5t80 199.5q0 145 -106 211.5t-328 66.5q-38 0 -61 -2v179l32 -2t26 -2t14 -1q382 0 382 250q0 98 -68.5 154.5t-191.5 56.5q-178 0 -301 -178l-145 113q172 235 469 235q204 0 321 -101.5t117 -273.5q0 -114 -57 -198.5 t-164 -130.5q268 -92 268 -385q0 -198 -133 -319.5t-360 -121.5q-358 0 -529 293z" />
<glyph unicode="4" horiz-adv-x="1236" d="M66 346v174l614 963h240v-971h231v-166h-231v-364h-191v364h-663zM246 510h485v770z" />
<glyph unicode="5" horiz-adv-x="1236" d="M123 260l178 92q106 -205 305 -205q139 0 225.5 99.5t86.5 265.5q0 145 -80.5 233.5t-206.5 88.5q-198 0 -277 -187l-166 39l62 797h774v-183h-614l-31 -407q57 57 125.5 82.5t159.5 25.5q205 0 332.5 -136t127.5 -365q0 -234 -141.5 -379.5t-372.5 -145.5 q-170 0 -294 72.5t-193 212.5z" />
<glyph unicode="6" horiz-adv-x="1236" d="M115 664q0 392 164 615.5t442 223.5q193 0 352 -96l-86 -160q-125 82 -264 82q-174 0 -283.5 -145.5t-115.5 -399.5q156 156 356 156q196 0 323 -132.5t127 -340.5q0 -221 -135.5 -355.5t-357.5 -134.5q-254 0 -388 175.5t-134 511.5zM319 537q6 -180 93.5 -283.5 t226.5 -103.5q126 0 208.5 87.5t82.5 225.5q0 140 -80.5 225.5t-208.5 85.5q-103 0 -190 -63t-132 -174z" />
<glyph unicode="7" horiz-adv-x="1236" d="M135 1298v185h961v-129l-613 -1372h-221l602 1316h-729z" />
<glyph unicode="8" horiz-adv-x="1236" d="M90 375q0 278 307 411q-250 113 -250 347q0 168 127 270t344 102q223 0 349.5 -101t126.5 -269q0 -239 -248 -344q155 -72 228 -167.5t73 -228.5q0 -200 -139.5 -310t-399.5 -110q-242 0 -380 109t-138 291zM295 391q0 -109 84 -176.5t227 -67.5q158 0 248 65t90 171 t-83 179t-265 136q-301 -108 -301 -307zM344 1139q0 -177 287 -260q138 43 201 103.5t63 154.5t-72.5 150t-193.5 56q-136 0 -210.5 -54.5t-74.5 -149.5z" />
<glyph unicode="9" horiz-adv-x="1236" d="M100 1016q0 219 137.5 353t356.5 134q255 0 389.5 -175.5t134.5 -512.5q0 -392 -166 -616t-444 -224q-210 0 -348 99l86 159q124 -81 262 -81q176 0 285.5 145t115.5 399q-158 -155 -356 -155q-196 0 -324.5 133t-128.5 342zM303 1018q0 -140 80.5 -225.5t208.5 -85.5 q103 0 189.5 63t131.5 174q-7 182 -94 284.5t-225 102.5q-126 0 -208.5 -87.5t-82.5 -225.5z" />
<glyph unicode=":" horiz-adv-x="649" d="M197 0v252h233v-252h-233zM197 604v252h233v-252h-233z" />
<glyph unicode=";" horiz-adv-x="649" d="M195 -305l106 315h-98v248h235v-270l-131 -295zM205 604v252h233v-252h-233z" />
<glyph unicode="&#x3c;" horiz-adv-x="1705" d="M264 547v129l1178 483v-153l-969 -396l969 -393v-154z" />
<glyph unicode="=" horiz-adv-x="1705" d="M254 342v139h1198v-139h-1198zM254 739v140h1198v-140h-1198z" />
<glyph unicode="&#x3e;" horiz-adv-x="1705" d="M264 63v154l971 393l-971 396v153l1178 -483v-129z" />
<glyph unicode="?" horiz-adv-x="899" d="M74 1237q46 130 140 199t226 69q155 0 253 -90t98 -231q0 -63 -20.5 -117t-59.5 -119q-21 -35 -83 -102.5t-89 -108.5q-31 -50 -43.5 -98t-12.5 -113v-43h-182q0 13 -1 36t-1 32q0 87 17 151.5t61 126.5q27 38 74.5 99t71 93.5t43.5 78.5t20 88q0 67 -42.5 110t-107.5 43 q-124 0 -186 -176zM270 0v256h236v-256h-236z" />
<glyph unicode="@" horiz-adv-x="2048" d="M106 522q0 335 203 582q145 177 350.5 269.5t456.5 92.5q166 0 312.5 -46t250.5 -126q129 -100 197 -231t68 -283q0 -175 -63 -315.5t-185 -235.5q-139 -112 -316 -112q-200 0 -200 157v19q-108 -174 -301 -174q-152 0 -233 85.5t-81 246.5q0 156 63.5 283t172.5 198.5 t241 71.5q170 0 242 -150l57 115h132l-146 -576q-8 -33 -8 -59q0 -94 100 -94q101 0 209 102q79 75 124.5 185.5t45.5 234.5q0 257 -189 419t-501 162q-266 0 -457 -114t-296 -299.5t-105 -409.5q0 -177 61.5 -307.5t192.5 -230.5q99 -75 234.5 -117.5t289.5 -42.5 q169 0 329 49t292 141l55 -82q-296 -223 -664 -223q-382 0 -628 187q-306 236 -306 628zM725 446q0 -106 48.5 -162.5t137.5 -56.5q96 0 173.5 68t105.5 180l59 236q-17 89 -68.5 136.5t-129.5 47.5q-90 0 -165 -59.5t-118 -163t-43 -226.5z" />
<glyph unicode="A" horiz-adv-x="1247" d="M23 0l454 1485h293l453 -1485h-219l-117 401h-535l-114 -401h-215zM403 582h428l-202 725h-17z" />
<glyph unicode="B" horiz-adv-x="1331" d="M180 0v1485h463q541 0 541 -375q0 -120 -57 -201.5t-175 -128.5q271 -100 271 -372q0 -408 -559 -408h-484zM391 180h273q178 0 260 60.5t82 195.5q0 125 -86.5 190.5t-251.5 65.5h-277v-512zM391 866h279q146 0 222.5 59t76.5 169q0 114 -81 164.5t-251 50.5h-246v-443z " />
<glyph unicode="C" horiz-adv-x="1249" d="M86 739q0 364 154.5 565t423.5 201q204 0 331.5 -106t173.5 -312l-198 -49q-65 287 -316 287q-166 0 -259 -151.5t-93 -436.5q0 -282 94.5 -427.5t272.5 -145.5q127 0 213.5 77.5t115.5 221.5l197 -49q-115 -439 -532 -439q-280 0 -429 195.5t-149 568.5z" />
<glyph unicode="D" horiz-adv-x="1396" d="M186 0v1485h396q355 0 533.5 -186.5t178.5 -555.5q0 -370 -185 -556.5t-552 -186.5h-371zM399 190h142q282 0 410 129.5t128 423.5q0 292 -126.5 423.5t-401.5 131.5h-152v-1108z" />
<glyph unicode="E" horiz-adv-x="1196" d="M188 0v1485h914v-185h-701v-432h502v-182h-502v-496h734v-190h-947z" />
<glyph unicode="F" horiz-adv-x="1124" d="M184 0v1485h901v-185h-688v-430h514v-186h-514v-684h-213z" />
<glyph unicode="G" horiz-adv-x="1359" d="M86 737q0 370 158 569t444 199q192 0 324.5 -104.5t189.5 -302.5l-205 -47q-40 131 -121.5 201.5t-195.5 70.5q-184 0 -280.5 -149t-96.5 -441q0 -272 103 -420.5t280 -148.5q155 0 240 100.5t86 288.5h-316v182h533v-735h-168l-10 160q-139 -185 -387 -185 q-270 0 -424 201.5t-154 560.5z" />
<glyph unicode="H" horiz-adv-x="1462" d="M184 0v1485h213v-615h668v615h213v-1485h-213v678h-668v-678h-213z" />
<glyph unicode="I" horiz-adv-x="622" d="M203 0v1485h213v-1485h-213z" />
<glyph unicode="J" horiz-adv-x="899" d="M-4 174l164 119q38 -68 77 -98.5t95 -30.5q99 0 136.5 58t37.5 192v1071h213v-1075q0 -219 -95 -327t-288 -108q-219 0 -340 199z" />
<glyph unicode="K" horiz-adv-x="1308" d="M186 0v1485h213v-742l570 742h241l-444 -557l512 -928h-248l-405 750l-226 -281v-469h-213z" />
<glyph unicode="L" horiz-adv-x="1091" d="M188 0v1485h213v-1295h654v-190h-867z" />
<glyph unicode="M" horiz-adv-x="1722" d="M184 0v1485h318l268 -844q44 -135 94 -338q43 159 101 336l272 846h301v-1485h-195v1280q-91 -299 -100 -328l-307 -952h-152l-305 952q-60 192 -100 328v-1280h-195z" />
<glyph unicode="N" horiz-adv-x="1462" d="M182 0v1485h262l474 -815q91 -159 169 -320q-8 115 -8 297v838h201v-1485h-186l-535 889q-78 129 -184 340q8 -128 8 -316v-913h-201z" />
<glyph unicode="O" horiz-adv-x="1372" d="M86 741q0 357 162 560.5t438 203.5t438 -203.5t162 -560.5q0 -355 -163 -560.5t-437 -205.5q-275 0 -437.5 205t-162.5 561zM305 741q0 -278 100 -426.5t281 -148.5t281 149t100 426q0 278 -100 427t-281 149t-281 -148.5t-100 -427.5z" />
<glyph unicode="P" horiz-adv-x="1261" d="M184 0v1485h475q262 0 390.5 -104t128.5 -318q0 -206 -124.5 -317t-357.5 -111h-299v-635h-213zM397 817h234q175 0 252.5 55t77.5 193q0 132 -79.5 186t-256.5 54h-228v-488z" />
<glyph unicode="Q" horiz-adv-x="1372" d="M86 741q0 353 161.5 558.5t424.5 205.5q283 0 448.5 -200t165.5 -545q0 -351 -153 -563q82 -107 192 -113v-201h-12q-189 0 -320 180q-143 -88 -313 -88q-268 0 -431 206t-163 560zM305 739q0 -278 100 -425.5t285 -147.5q116 0 201 65q-73 113 -176 125v201 q84 -3 153 -43t133 -125q66 129 66 352q0 275 -101 425.5t-276 150.5q-183 0 -284 -149.5t-101 -428.5z" />
<glyph unicode="R" horiz-adv-x="1349" d="M184 0v1485h455q295 0 436.5 -100t141.5 -316q0 -146 -74 -242t-219 -137l340 -690h-234l-309 641h-326v-641h-211zM395 823h246q183 0 270.5 57.5t87.5 182.5q0 132 -83.5 187t-270.5 55h-250v-482z" />
<glyph unicode="S" horiz-adv-x="1169" d="M63 356l199 78q47 -132 136 -202t208 -70q117 0 187.5 65t70.5 166q0 31 -8 58t-20.5 48t-37.5 42t-48 36.5t-64.5 35.5t-74 34t-89.5 37q-216 89 -311.5 181.5t-95.5 244.5q0 170 125.5 282.5t326.5 112.5q180 0 303 -89.5t174 -256.5l-192 -63q-82 229 -303 229 q-96 0 -154.5 -52t-58.5 -132q0 -95 64 -153.5t214 -121.5q18 -8 67 -27.5t72 -30t60.5 -28t65.5 -36t53 -39.5q145 -121 145 -306q0 -188 -130.5 -305t-346.5 -117q-198 0 -336 97.5t-201 281.5z" />
<glyph unicode="T" horiz-adv-x="1134" d="M43 1296v189h1047v-189h-414v-1296h-219v1296h-414z" />
<glyph unicode="U" horiz-adv-x="1458" d="M182 522v963h213v-940q0 -201 76.5 -292t259.5 -91q184 0 259 91t75 292v940h211v-985q0 -258 -141.5 -391.5t-415.5 -133.5q-264 0 -400.5 138.5t-136.5 408.5z" />
<glyph unicode="V" horiz-adv-x="1232" d="M23 1485h217l372 -1206h9l372 1206h217l-477 -1485h-235z" />
<glyph unicode="W" horiz-adv-x="1896" d="M39 1485h213l225 -844q47 -176 68 -301l8 -2q9 55 21 107t29.5 114.5t21.5 77.5l229 848h190l228 -844q33 -120 65 -301l11 -2q31 165 69 299l228 848h213l-410 -1485h-195l-229 834q-45 161 -76 313q-51 -228 -74 -311l-231 -836h-194z" />
<glyph unicode="X" horiz-adv-x="1140" d="M18 0l439 774l-406 711h240l284 -518l279 518h227l-395 -701l442 -784h-243l-316 598l-323 -598h-228z" />
<glyph unicode="Y" horiz-adv-x="1134" d="M18 1485h230l323 -656l324 656h219l-438 -875v-610h-215v608z" />
<glyph unicode="Z" horiz-adv-x="1118" d="M57 0v168l738 1132h-676v185h921v-162l-739 -1135h741v-188h-985z" />
<glyph unicode="[" horiz-adv-x="667" d="M168 -152v1637h438v-107h-258v-1423h258v-107h-438z" />
<glyph unicode="\" horiz-adv-x="557" d="M-37 1505h135l551 -1695h-135z" />
<glyph unicode="]" horiz-adv-x="667" d="M61 -45h258v1423h-258v107h439v-1637h-439v107z" />
<glyph unicode="^" horiz-adv-x="2048" d="M420 901l510 557h186l510 -557h-180l-422 420l-424 -420h-180z" />
<glyph unicode="_" d="M0 -340h1024v-143h-1024v143z" />
<glyph unicode="`" d="M242 1554h215l202 -358h-120z" />
<glyph unicode="a" horiz-adv-x="1040" d="M76 276q0 174 152.5 274.5t476.5 154.5v81q0 66 -52 106t-139 40q-161 0 -248 -146l-149 86q66 113 166.5 166.5t246.5 53.5q169 0 267 -84.5t98 -233.5v-612q0 -68 20 -150v-12h-196l-21 123q-149 -137 -329 -137q-135 0 -214 79t-79 211zM268 287q0 -66 41 -105 t111 -39q121 0 280 144v264q-223 -39 -327.5 -101t-104.5 -163z" />
<glyph unicode="b" horiz-adv-x="1110" d="M141 0q13 138 13 301v1184h192v-529q100 134 262 134q195 0 312.5 -146.5t117.5 -400.5q0 -266 -113.5 -413.5t-314.5 -147.5q-177 0 -286 141l-31 -123h-152zM346 276q106 -133 234 -133q124 0 192 99t68 286q0 197 -68.5 298.5t-198.5 101.5q-122 0 -227 -129v-523z " />
<glyph unicode="c" horiz-adv-x="974" d="M68 524q0 267 117.5 417.5t316.5 150.5q151 0 254 -73t153 -212l-174 -66q-29 92 -86 139.5t-137 47.5q-119 0 -183.5 -100t-64.5 -291q0 -392 250 -392q80 0 147 50t109 143l156 -82q-125 -274 -420 -274q-211 0 -324.5 140t-113.5 402z" />
<glyph unicode="d" horiz-adv-x="1110" d="M72 539q0 260 114.5 405.5t311.5 145.5q172 0 266 -132v527h192v-1188q0 -151 15 -297h-152l-33 127q-112 -145 -292 -145q-192 0 -307 149t-115 408zM270 543q0 -197 67.5 -297.5t197.5 -100.5q128 0 229 131v523q-107 131 -234 131q-123 0 -191.5 -100t-68.5 -287z" />
<glyph unicode="e" horiz-adv-x="997" d="M70 524q0 274 116 421t326 147q194 0 307 -141t113 -394q0 -9 -1 -27.5t-1 -27.5h-664v-21q0 -162 70.5 -250t198.5 -88q169 0 260 168l143 -88q-134 -243 -414 -243q-220 0 -337 139.5t-117 404.5zM268 651h465q-3 135 -64 210t-163 75q-107 0 -169.5 -74t-68.5 -211z " />
<glyph unicode="f" horiz-adv-x="589" d="M4 909v164h168v156q0 134 71 205t206 71q57 0 139 -16v-162q-65 10 -99 10q-67 0 -95.5 -31.5t-28.5 -103.5v-129h215v-164h-215v-909h-193v909h-168z" />
<glyph unicode="g" horiz-adv-x="1005" d="M41 -125q0 76 43.5 124.5t138.5 82.5q-68 28 -100.5 66.5t-32.5 93.5q0 112 150 192q-144 101 -144 285q0 170 110 272.5t300 102.5q140 0 250 -84q94 98 196 98q5 0 16 -1t17 -1v-160h-49q-66 0 -100 -31q53 -80 53 -194q0 -169 -105 -267t-288 -98q-68 0 -142 19 q-78 -29 -78 -84q0 -17 5.5 -29.5t20 -21t30.5 -14t45.5 -9.5t56 -6t70.5 -4q103 -6 171.5 -15t130.5 -28t97.5 -48.5t55.5 -76t20 -111.5q0 -156 -128.5 -236.5t-379.5 -80.5q-211 0 -320.5 68.5t-109.5 195.5zM227 -102q0 -68 68.5 -104t202.5 -36q135 0 210.5 42.5 t75.5 111.5q0 62 -47 87.5t-157 33.5l-197 14q-82 -32 -119 -66.5t-37 -82.5zM281 727q0 -103 57 -161t160 -58q99 0 156 58t57 157q0 98 -59 157.5t-156 59.5q-100 0 -157.5 -57.5t-57.5 -155.5z" />
<glyph unicode="h" horiz-adv-x="1128" d="M154 0v1485h192v-553q171 155 334 155q145 0 224 -81.5t79 -233.5v-772h-192v719q0 207 -166 207q-131 0 -279 -142v-784h-192z" />
<glyph unicode="i" horiz-adv-x="514" d="M152 1278v207h210v-207h-210zM162 0v1073h192v-1073h-192z" />
<glyph unicode="j" horiz-adv-x="530" d="M-8 -207q31 -8 65 -8q69 0 94 30t25 107v1151h193v-1147q0 -166 -57 -240.5t-203 -74.5q-58 0 -117 16v166zM168 1278v207h209v-207h-209z" />
<glyph unicode="k" horiz-adv-x="1013" d="M154 0v1485h192v-910l412 498h215l-332 -387l365 -686h-213l-283 532l-164 -182v-350h-192z" />
<glyph unicode="l" horiz-adv-x="514" d="M160 0v1485h192v-1485h-192z" />
<glyph unicode="m" horiz-adv-x="1697" d="M152 0v1073h178v-145q78 85 159.5 124.5t180.5 39.5q184 0 252 -170q86 89 169 129.5t185 40.5q128 0 202 -76.5t74 -210.5v-805h-194v743q0 185 -148 185q-138 0 -266 -140v-788h-188v727q0 104 -34.5 152.5t-113.5 48.5q-137 0 -264 -142v-786h-192z" />
<glyph unicode="n" horiz-adv-x="1112" d="M154 0v1073h178v-147q93 82 173.5 121.5t168.5 39.5q139 0 216 -82t77 -233v-772h-195v719q0 105 -38.5 156t-119.5 51q-126 0 -268 -142v-784h-192z" />
<glyph unicode="o" horiz-adv-x="1032" d="M63 537q0 264 120 409.5t333 145.5t332 -145.5t119 -409.5q0 -265 -119 -411t-332 -146t-333 146.5t-120 410.5zM262 537q0 -193 64.5 -291.5t189.5 -98.5q124 0 189 98.5t65 289.5q0 193 -64.5 291t-189.5 98q-254 0 -254 -387z" />
<glyph unicode="p" horiz-adv-x="1112" d="M154 -389v1462h145l27 -127q60 73 127.5 109.5t156.5 36.5q201 0 319 -149t118 -411t-117 -406t-322 -144q-162 0 -262 127v-498h-192zM344 272q110 -131 240 -131q126 0 195 100t69 287q0 195 -69.5 296.5t-200.5 101.5q-130 0 -234 -131v-523z" />
<glyph unicode="q" horiz-adv-x="1110" d="M70 526q0 265 114 415.5t310 150.5q179 0 290 -144l31 125h152q-13 -162 -13 -303v-1159h-192v504q-95 -133 -262 -133q-196 0 -313 145t-117 399zM268 543q0 -197 68.5 -298.5t198.5 -101.5q124 0 227 129v523q-106 133 -234 133q-124 0 -192 -99t-68 -286z" />
<glyph unicode="r" horiz-adv-x="681" d="M154 0v1073h190v-215q107 229 291 229q21 0 33 -2v-200h-17q-94 0 -172 -67.5t-127 -194.5v-623h-198z" />
<glyph unicode="s" horiz-adv-x="894" d="M41 188l141 113q126 -164 279 -164q80 0 129 42t49 106q0 20 -3.5 36.5t-12 30.5t-17 24.5t-25.5 21.5t-30 18.5t-37.5 17t-40.5 15.5t-46.5 17.5t-49.5 18.5q-156 60 -224.5 128t-68.5 182q0 129 94.5 213t249.5 84q222 0 369 -172l-125 -117q-113 131 -240 131 q-71 0 -113.5 -34.5t-42.5 -90.5q0 -58 44.5 -91t152.5 -73q94 -35 154 -65t109 -70.5t71 -91t22 -117.5q0 -143 -103.5 -232t-274.5 -89q-126 0 -232 53.5t-178 154.5z" />
<glyph unicode="t" horiz-adv-x="643" d="M29 909v164h151v344h193v-344h235v-164h-235v-622q0 -75 24.5 -106t96.5 -31q67 0 114 12v-162q-67 -20 -178 -20q-128 0 -189 55t-61 172v702h-151z" />
<glyph unicode="u" horiz-adv-x="1112" d="M145 299v774h195v-721q0 -107 37 -157t121 -50q127 0 266 142v786h194v-1073h-180v145q-92 -82 -174 -121.5t-170 -39.5q-137 0 -213 82t-76 233z" />
<glyph unicode="v" horiz-adv-x="956" d="M16 1073h195l201 -641q28 -91 63 -225q7 32 16.5 67t16 56.5t17 55.5t14.5 46l202 641h195l-350 -1073h-219z" />
<glyph unicode="w" horiz-adv-x="1505" d="M39 1073h190l166 -606q3 -8 8.5 -34.5t17 -83t23.5 -109.5q8 51 50 209l170 624h176l166 -606q18 -68 51 -227q15 85 49 209l168 624h190l-305 -1073h-201l-151 543q-45 171 -55 221q-30 -130 -54 -217l-155 -547h-199z" />
<glyph unicode="x" horiz-adv-x="907" d="M12 0l334 563l-307 510h215l197 -356l198 356h203l-297 -510l336 -563h-217l-228 418l-229 -418h-205z" />
<glyph unicode="y" horiz-adv-x="956" d="M16 1073h195l278 -790l254 790h193l-354 -1057q-29 -86 -53.5 -145t-58 -112t-72.5 -83t-92 -47.5t-120 -17.5q-70 0 -114 12v170q39 -10 94 -10q99 0 151 55.5t80 184.5z" />
<glyph unicode="z" horiz-adv-x="903" d="M45 0v141l563 770h-510v162h748v-141l-561 -766h561v-166h-801z" />
<glyph unicode="{" d="M168 457v149q8 0 23 -1t22 -1q131 0 184.5 60.5t53.5 207.5v246q0 132 18.5 200.5t81.5 106.5q86 52 278 52h37v-150h-41q-125 0 -163.5 -46.5t-38.5 -182.5v-242q0 -150 -41 -222.5t-160 -103.5q121 -31 161 -102.5t40 -222.5v-242q0 -70 7.5 -110t29.5 -69t61.5 -39.5 t105.5 -10.5h39v-148h-43q-98 0 -162 10t-110 39q-63 38 -81.5 107t-18.5 201v245q0 147 -54 209t-186 62q-7 0 -21.5 -1t-21.5 -1z" />
<glyph unicode="|" d="M438 -483v2048h150v-2048h-150z" />
<glyph unicode="}" d="M160 -266h39q126 0 165 47.5t39 183.5v240q0 150 40.5 222t160.5 103q-119 31 -160 103.5t-41 222.5v242q0 135 -39 182t-165 47h-39v150h37q194 0 278 -52q63 -38 81.5 -106.5t18.5 -200.5v-246q0 -147 53.5 -207.5t184.5 -60.5q7 0 22 1t23 1v-149q-7 0 -22 1t-21 1 q-134 0 -187 -61.5t-53 -209.5v-245q0 -132 -18.5 -201t-81.5 -107q-46 -29 -110 -39t-162 -10h-43v148z" />
<glyph unicode="~" horiz-adv-x="1705" d="M178 451v155q212 144 387 144q118 0 291 -62q11 -4 41.5 -15t43 -15t39 -12.5t42.5 -12.5t38.5 -8.5t42.5 -6.5t40 -2q92 0 184.5 38t202.5 116v-156q-203 -141 -389 -141q-22 0 -43 2t-44.5 6.5t-39 8t-43 12.5t-38 12.5t-42.5 14.5t-39 14q-66 23 -99 33t-87.5 21 t-102.5 11q-88 0 -180 -38.5t-205 -118.5z" />
<glyph unicode="&#xa1;" horiz-adv-x="647" d="M201 0l49 997h139l49 -997h-237zM203 1225v260h233v-260h-233z" />
<glyph unicode="&#xa2;" horiz-adv-x="1236" d="M182 547q0 266 123 415.5t338 149.5q44 0 113 -16l75 215h130l-95 -262q107 -73 170 -224l-174 -69q-24 74 -65 112l-250 -690q41 -12 84 -12q177 0 260 188l162 -82q-122 -274 -430 -274q-63 0 -131 20l-86 -243h-130l109 301q-96 62 -149.5 184t-53.5 287zM379 547 q0 -184 74 -291l245 678q-50 16 -77 16q-111 0 -176.5 -105.5t-65.5 -297.5z" />
<glyph unicode="&#xa3;" horiz-adv-x="1236" d="M66 662v151h200q-26 157 -26 252q0 201 118 320.5t316 119.5q196 0 315.5 -106t145.5 -303l-193 -17q-12 117 -83.5 185.5t-178.5 68.5q-113 0 -175.5 -68.5t-62.5 -195.5q0 -64 25 -256h291v-151h-273v-64q0 -184 -57 -309q171 -125 315 -125q217 0 238 244l190 -17 q-12 -200 -115.5 -308t-279.5 -108q-221 0 -434 152q-103 -126 -274 -150v205q215 65 215 357q0 33 -4 123h-213z" />
<glyph unicode="&#xa4;" horiz-adv-x="1236" d="M0 549l29 113h121q-3 40 -3 79q0 19 5 101h-152l29 112h131q37 271 168.5 411t347.5 140q182 0 301 -97.5t162 -293.5l-185 -49q-70 266 -282 266q-122 0 -199.5 -96.5t-105.5 -280.5h546l-32 -112h-525q-4 -66 -4 -103q0 -52 2 -77h471l-30 -113h-430 q26 -194 108 -295.5t207 -101.5q110 0 189.5 75t109.5 213l186 -51q-97 -414 -491 -414q-219 0 -351.5 146t-164.5 428h-158z" />
<glyph unicode="&#xa5;" horiz-adv-x="1236" d="M68 616v113h395l-92 184h-303v113h245l-231 455h211l330 -682l329 682h201l-229 -455h241v-113h-299l-92 -184h391v-113h-452v-616h-191v616h-454z" />
<glyph unicode="&#xa6;" d="M438 -350v758h150v-758h-150zM438 674v758h150v-758h-150z" />
<glyph unicode="&#xa7;" d="M129 807q0 94 60 155t163 68q-110 122 -110 232q0 108 75.5 175.5t200.5 67.5q86 0 163 -43t130 -125l-119 -86q-82 117 -172 117q-50 0 -80 -28.5t-30 -77.5q0 -34 21 -72t48 -68t81 -85l15 -15l152 -152q90 -92 132 -167t42 -160q0 -90 -61 -148t-166 -67 q114 -120 114 -258q0 -116 -77 -187t-201 -71q-94 0 -176.5 46.5t-140.5 133.5l118 88q45 -60 94.5 -91.5t94.5 -31.5q56 0 87 30.5t31 88.5q0 39 -27 86.5t-59.5 85t-104.5 113.5q-11 12 -17 18l-152 162q-129 138 -129 266zM285 817q0 -69 123 -201q81 -90 136.5 -132 t98.5 -42q41 0 69.5 28t28.5 71q0 36 -23 75t-71 95q-96 110 -156 159.5t-108 49.5q-40 0 -69 -30t-29 -73z" />
<glyph unicode="&#xa8;" d="M250 1257v213h190v-213h-190zM584 1257v213h190v-213h-190z" />
<glyph unicode="&#xa9;" horiz-adv-x="1705" d="M117 727q0 147 56 281.5t163 242.5q103 103 235.5 158t280.5 55q309 0 524 -215q103 -103 159 -238t56 -284q0 -150 -55 -282t-158 -234q-109 -106 -245 -163.5t-281 -57.5q-146 0 -279 56.5t-239 162.5t-161.5 239t-55.5 279zM213 727q0 -126 49 -242.5t141 -208.5 q188 -188 451 -188q126 0 242.5 49t212.5 142q184 181 184 448q0 130 -47.5 247t-136.5 206q-188 188 -455 188q-264 0 -448 -184q-93 -93 -143 -211.5t-50 -245.5zM463 733q0 201 109.5 323t285.5 122q142 0 236.5 -75.5t105.5 -195.5h-147q-12 77 -65.5 118.5t-139.5 41.5 q-103 0 -164 -89t-61 -251q0 -158 62.5 -245t172.5 -87q82 0 137 46.5t68 129.5h145q-9 -131 -107 -211.5t-249 -80.5q-181 0 -285 119.5t-104 334.5z" />
<glyph unicode="&#xaa;" horiz-adv-x="780" d="M57 928q0 122 114 192.5t357 108.5v57q0 46 -38.5 73t-104.5 27q-121 0 -184 -100l-113 60q95 153 309 153q128 0 201.5 -59t73.5 -162v-430q0 -44 14 -105v-8h-147l-15 86q-113 -96 -248 -96q-101 0 -160 55t-59 148zM201 936q0 -46 30 -73t84 -27q90 0 211 100v184 q-168 -27 -246.5 -70t-78.5 -114z" />
<glyph unicode="&#xab;" horiz-adv-x="1064" d="M121 537l254 319h186l-252 -319l250 -322h-192zM475 537l254 319h186l-249 -319l247 -322h-190z" />
<glyph unicode="&#xac;" horiz-adv-x="1705" d="M254 721v139h1198v-502h-137v363h-1061z" />
<glyph unicode="&#xad;" horiz-adv-x="675" d="M92 449v174h481v-174h-481z" />
<glyph unicode="&#xae;" horiz-adv-x="1705" d="M117 727q0 146 58 282.5t165 245.5q206 209 512 209q151 0 285.5 -56t240.5 -163q102 -104 157.5 -237.5t55.5 -280.5q0 -309 -215 -518q-109 -106 -244 -162.5t-280 -56.5q-147 0 -280.5 57t-239.5 164q-105 106 -160 238t-55 278zM213 727q0 -257 188 -448 q90 -92 206.5 -141.5t240.5 -49.5q265 0 459 188q90 87 138 202t48 243q0 275 -182 457q-187 190 -457 190q-267 0 -446 -182q-94 -95 -144.5 -214t-50.5 -245zM557 324v835h315q349 0 349 -229q0 -89 -50 -147.5t-141 -77.5l187 -381h-177l-170 356h-155v-356h-158z M715 780h133q110 0 160.5 30.5t50.5 102.5q0 76 -52 110t-163 34h-129v-277z" />
<glyph unicode="&#xaf;" d="M242 1294v140h540v-140h-540z" />
<glyph unicode="&#xb0;" horiz-adv-x="673" d="M49 1167q0 121 85 205t204 84t203 -84.5t84 -204.5q0 -118 -83.5 -202t-205.5 -84q-121 0 -204 83t-83 203zM143 1169q0 -82 56.5 -139t138.5 -57t137 57.5t55 138.5q0 80 -55.5 136.5t-136.5 56.5q-80 0 -137.5 -56t-57.5 -137z" />
<glyph unicode="&#xb1;" horiz-adv-x="1705" d="M254 29v141h1198v-141h-1198zM254 713v139h528v340h142v-340h528v-139h-528v-340h-142v340h-528z" />
<glyph unicode="&#xb2;" horiz-adv-x="817" d="M70 592v117q75 130 219 233q148 104 185 135q90 78 96 155q1 7 1 15q0 65 -44 105.5t-117 40.5q-82 0 -136 -44.5t-69 -125.5l-127 24q26 118 112 183t213 65q142 0 224 -69t82 -185q0 -63 -32.5 -118.5t-83 -99t-142.5 -105.5q-110 -76 -166.5 -123.5t-79.5 -94.5h504 v-108h-639z" />
<glyph unicode="&#xb3;" horiz-adv-x="817" d="M37 754l110 63q87 -135 232 -135q91 0 143.5 44t52.5 120q0 87 -69.5 127.5t-216.5 40.5q-25 0 -41 -2v106q15 0 31 -1t18 -1q252 0 252 150q0 59 -45 93t-127 34q-117 0 -199 -107l-96 68q116 141 309 141q136 0 213.5 -61t77.5 -164q0 -140 -147 -197q178 -55 178 -231 q0 -119 -88 -191.5t-238 -72.5q-238 0 -350 176z" />
<glyph unicode="&#xb4;" d="M365 1196l202 358h215l-297 -358h-120z" />
<glyph unicode="&#xb5;" horiz-adv-x="1150" d="M-113 -428l318 1499h180l-129 -600q-14 -63 -14 -133q0 -99 52 -153t148 -54q135 0 211 96t121 308l115 536h178l-156 -731q-22 -108 -22 -133q0 -37 17 -52.5t55 -15.5q20 0 32 2l-30 -143q-49 -10 -109 -10q-64 0 -97 29.5t-52 99.5q-88 -131 -271 -131 q-82 0 -143 27.5t-113 88.5l-110 -530h-181z" />
<glyph unicode="&#xb6;" d="M66 1130q0 156 106.5 252.5t286.5 96.5h499v-86h-120v-1393h-111v1393h-178v-1393h-111v782q-172 7 -272 102t-100 246z" />
<glyph unicode="&#xb7;" horiz-adv-x="618" d="M166 735q0 60 41.5 101t101.5 41t102 -41.5t42 -100.5q0 -60 -42.5 -101.5t-101.5 -41.5t-101 41t-42 102z" />
<glyph unicode="&#xb8;" d="M291 -324q159 -38 252 -38q110 0 110 77q0 47 -31.5 66.5t-101.5 19.5q-33 0 -51 -2v201h86v-98h20q112 0 171 -45.5t59 -130.5q0 -197 -256 -197q-101 0 -258 41v106z" />
<glyph unicode="&#xb9;" horiz-adv-x="815" d="M172 1350v80q109 19 213 65h92v-803h158v-100h-447v100h160v670z" />
<glyph unicode="&#xba;" horiz-adv-x="774" d="M47 1110q0 185 90.5 287t249.5 102q160 0 249 -102t89 -287t-89 -287t-249 -102q-159 0 -249.5 102t-90.5 287zM197 1110q0 -272 190 -272q93 0 142 69t49 203q0 272 -191 272q-190 0 -190 -272z" />
<glyph unicode="&#xbb;" horiz-adv-x="1064" d="M143 213l252 322l-248 321h191l248 -321l-254 -322h-189zM502 213l252 322l-250 321h192l246 -321l-254 -322h-186z" />
<glyph unicode="&#xbc;" horiz-adv-x="1900" d="M166 1358v74q117 25 201 63h90v-752h149v-92h-426v92h152v627zM436 -25l899 1530h125l-899 -1530h-125zM1161 195v96l387 538h152v-542h145v-92h-145v-205h-121v205h-418zM1276 285h305v432z" />
<glyph unicode="&#xbd;" horiz-adv-x="1900" d="M166 1358v74q117 25 201 63h90v-752h149v-92h-426v92h152v627zM436 -25l899 1530h125l-899 -1530h-125zM1188 0v109q72 126 209 219q145 97 182 130q85 75 86 152q0 62 -42.5 100t-111.5 38q-78 0 -129.5 -41.5t-64.5 -116.5l-121 20q25 110 107 172t202 62 q135 0 213 -65t78 -173q0 -86 -57.5 -151t-188.5 -152q-103 -69 -157.5 -114.5t-77.5 -88.5h481v-100h-608z" />
<glyph unicode="&#xbe;" horiz-adv-x="1900" d="M37 801l104 61q83 -127 221 -127q87 0 137 41t50 113q0 81 -66.5 118t-206.5 37h-38v99q14 0 29 -1t16 -1q241 0 241 139q0 56 -43 87.5t-121 31.5q-114 0 -190 -101l-92 64q111 133 297 133q128 0 202 -57.5t74 -153.5q0 -130 -141 -184q170 -53 170 -215 q0 -112 -84 -180t-227 -68q-224 0 -332 164zM438 -25l899 1530h125l-899 -1530h-125zM1163 195v96l387 538h152v-542h145v-92h-145v-205h-121v205h-418zM1278 285h305v432z" />
<glyph unicode="&#xbf;" horiz-adv-x="899" d="M96 299q0 64 20 117t60 119q21 34 82.5 100.5t87.5 107.5q57 86 57 215v39h181q2 -25 2 -69q0 -86 -16.5 -149t-59.5 -124q-25 -35 -75 -99t-72.5 -95.5t-43 -78.5t-20.5 -89q0 -67 42.5 -109.5t107.5 -42.5q127 0 188 174l176 -69q-47 -131 -142 -200t-227 -69 q-155 0 -251.5 90t-96.5 232zM379 1229v256h235v-256h-235z" />
<glyph unicode="&#xc0;" horiz-adv-x="1247" d="M23 0l454 1485h293l453 -1485h-219l-117 401h-535l-114 -401h-215zM354 1970h215l203 -358h-121zM403 582h428l-202 725h-17z" />
<glyph unicode="&#xc1;" horiz-adv-x="1247" d="M23 0l454 1485h293l453 -1485h-219l-117 401h-535l-114 -401h-215zM403 582h428l-202 725h-17zM477 1612l203 358h215l-297 -358h-121z" />
<glyph unicode="&#xc2;" horiz-adv-x="1247" d="M23 0l454 1485h293l453 -1485h-219l-117 401h-535l-114 -401h-215zM326 1612l196 358h205l197 -358h-123l-176 231l-179 -231h-120zM403 582h428l-202 725h-17z" />
<glyph unicode="&#xc3;" horiz-adv-x="1247" d="M23 0l454 1485h293l453 -1485h-219l-117 401h-535l-114 -401h-215zM322 1663q47 209 200 209q41 0 72 -10l84 -27q33 -10 57 -10q70 0 94 78h97q-53 -215 -203 -215q-39 0 -68 10l-84 26q-32 11 -55 11q-70 0 -96 -72h-98zM403 582h428l-202 725h-17z" />
<glyph unicode="&#xc4;" horiz-adv-x="1247" d="M23 0l454 1485h293l453 -1485h-219l-117 401h-535l-114 -401h-215zM362 1673v213h191v-213h-191zM403 582h428l-202 725h-17zM696 1673v213h191v-213h-191z" />
<glyph unicode="&#xc5;" horiz-adv-x="1247" d="M23 0l450 1470h78q-178 73 -178 246q0 107 74.5 181.5t181.5 74.5t181.5 -74.5t74.5 -181.5q0 -172 -180 -246h69l449 -1470h-219l-117 401h-535l-114 -401h-215zM403 582h428l-202 725h-17zM496 1716q0 -57 38 -95t95 -38t95 38t38 95q0 56 -39 94.5t-94 38.5 q-57 0 -95 -38t-38 -95z" />
<glyph unicode="&#xc6;" horiz-adv-x="1806" d="M-53 0l678 1485h1065v-185h-654v-432h465v-182h-465v-496h686v-190h-891v401h-485l-180 -401h-219zM424 582h407v718h-90z" />
<glyph unicode="&#xc7;" horiz-adv-x="1249" d="M86 739q0 364 154.5 565t423.5 201q204 0 331.5 -106t173.5 -312l-198 -49q-65 287 -316 287q-166 0 -259 -151.5t-93 -436.5q0 -282 94.5 -427.5t272.5 -145.5q127 0 213.5 77.5t115.5 221.5l197 -49q-115 -439 -532 -439q-280 0 -429 195.5t-149 568.5zM412 -324 q159 -38 252 -38q110 0 110 77q0 47 -31.5 66.5t-101.5 19.5q-33 0 -51 -2v201h86v-98h20q112 0 171 -45.5t59 -130.5q0 -197 -256 -197q-101 0 -258 41v106z" />
<glyph unicode="&#xc8;" horiz-adv-x="1196" d="M188 0v1485h914v-185h-701v-432h502v-182h-502v-496h734v-190h-947zM352 1970h215l203 -358h-121z" />
<glyph unicode="&#xc9;" horiz-adv-x="1196" d="M188 0v1485h914v-185h-701v-432h502v-182h-502v-496h734v-190h-947zM475 1612l203 358h215l-297 -358h-121z" />
<glyph unicode="&#xca;" horiz-adv-x="1196" d="M188 0v1485h914v-185h-701v-432h502v-182h-502v-496h734v-190h-947zM324 1612l196 358h205l197 -358h-123l-176 231l-179 -231h-120z" />
<glyph unicode="&#xcb;" horiz-adv-x="1196" d="M188 0v1485h914v-185h-701v-432h502v-182h-502v-496h734v-190h-947zM360 1673v213h191v-213h-191zM694 1673v213h191v-213h-191z" />
<glyph unicode="&#xcc;" horiz-adv-x="622" d="M41 1970h215l203 -358h-121zM203 0v1485h213v-1485h-213z" />
<glyph unicode="&#xcd;" horiz-adv-x="622" d="M164 1612l203 358h215l-297 -358h-121zM203 0v1485h213v-1485h-213z" />
<glyph unicode="&#xce;" horiz-adv-x="622" d="M12 1612l197 358h205l196 -358h-123l-176 231l-178 -231h-121zM203 0v1485h213v-1485h-213z" />
<glyph unicode="&#xcf;" horiz-adv-x="622" d="M49 1673v213h191v-213h-191zM203 0v1485h213v-1485h-213zM383 1673v213h190v-213h-190z" />
<glyph unicode="&#xd0;" horiz-adv-x="1404" d="M4 709v133h191v643h397q355 0 534 -186.5t179 -555.5q0 -370 -185.5 -556.5t-552.5 -186.5h-372v709h-191zM408 190h141q282 0 410 129.5t128 423.5q0 292 -125.5 423.5t-400.5 131.5h-153v-456h307v-133h-307v-519z" />
<glyph unicode="&#xd1;" horiz-adv-x="1462" d="M182 0v1485h262l474 -815q91 -159 169 -320q-8 115 -8 297v838h201v-1485h-186l-535 889q-78 129 -184 340q8 -128 8 -316v-913h-201zM428 1663q47 209 201 209q40 0 71 -10l84 -27q33 -10 58 -10q70 0 94 78h96q-53 -215 -203 -215q-38 0 -67 10l-84 26q-32 11 -55 11 q-71 0 -97 -72h-98z" />
<glyph unicode="&#xd2;" horiz-adv-x="1372" d="M86 741q0 357 162 560.5t438 203.5t438 -203.5t162 -560.5q0 -355 -163 -560.5t-437 -205.5q-275 0 -437.5 205t-162.5 561zM305 741q0 -278 100 -426.5t281 -148.5t281 149t100 426q0 278 -100 427t-281 149t-281 -148.5t-100 -427.5zM416 1970h215l203 -358h-121z" />
<glyph unicode="&#xd3;" horiz-adv-x="1372" d="M86 741q0 357 162 560.5t438 203.5t438 -203.5t162 -560.5q0 -355 -163 -560.5t-437 -205.5q-275 0 -437.5 205t-162.5 561zM305 741q0 -278 100 -426.5t281 -148.5t281 149t100 426q0 278 -100 427t-281 149t-281 -148.5t-100 -427.5zM539 1612l202 358h215l-297 -358 h-120z" />
<glyph unicode="&#xd4;" horiz-adv-x="1372" d="M86 741q0 357 162 560.5t438 203.5t438 -203.5t162 -560.5q0 -355 -163 -560.5t-437 -205.5q-275 0 -437.5 205t-162.5 561zM305 741q0 -278 100 -426.5t281 -148.5t281 149t100 426q0 278 -100 427t-281 149t-281 -148.5t-100 -427.5zM387 1612l197 358h204l197 -358 h-123l-176 231l-178 -231h-121z" />
<glyph unicode="&#xd5;" horiz-adv-x="1372" d="M86 741q0 357 162 560.5t438 203.5t438 -203.5t162 -560.5q0 -355 -163 -560.5t-437 -205.5q-275 0 -437.5 205t-162.5 561zM305 741q0 -278 100 -426.5t281 -148.5t281 149t100 426q0 278 -100 427t-281 149t-281 -148.5t-100 -427.5zM383 1663q47 209 201 209 q40 0 71 -10l84 -27q33 -10 58 -10q70 0 94 78h96q-53 -215 -203 -215q-38 0 -67 10l-84 26q-32 11 -55 11q-71 0 -97 -72h-98z" />
<glyph unicode="&#xd6;" horiz-adv-x="1372" d="M86 741q0 357 162 560.5t438 203.5t438 -203.5t162 -560.5q0 -355 -163 -560.5t-437 -205.5q-275 0 -437.5 205t-162.5 561zM305 741q0 -278 100 -426.5t281 -148.5t281 149t100 426q0 278 -100 427t-281 149t-281 -148.5t-100 -427.5zM424 1673v213h190v-213h-190z M758 1673v213h190v-213h-190z" />
<glyph unicode="&#xd7;" horiz-adv-x="1705" d="M293 141l469 469l-469 469l98 99l469 -469l469 469l98 -99l-469 -469l469 -469l-98 -96l-469 467l-469 -467z" />
<glyph unicode="&#xd8;" horiz-adv-x="1372" d="M80 -39l153 242q-147 215 -147 540q0 349 162.5 555.5t423.5 206.5q212 0 340 -98l112 174l133 -86l-129 -203q158 -202 158 -561q0 -347 -164 -551.5t-436 -204.5q-205 0 -340 111l-133 -211zM303 735q0 -182 64 -344l544 844q-91 82 -225 82q-183 0 -283 -150 t-100 -432zM451 260q91 -94 239 -94q175 0 276 146.5t101 408.5q0 228 -66 389z" />
<glyph unicode="&#xd9;" horiz-adv-x="1458" d="M182 522v963h213v-940q0 -201 76.5 -292t259.5 -91q184 0 259 91t75 292v940h211v-985q0 -258 -141.5 -391.5t-415.5 -133.5q-264 0 -400.5 138.5t-136.5 408.5zM459 1970h215l203 -358h-121z" />
<glyph unicode="&#xda;" horiz-adv-x="1458" d="M182 522v963h213v-940q0 -201 76.5 -292t259.5 -91q184 0 259 91t75 292v940h211v-985q0 -258 -141.5 -391.5t-415.5 -133.5q-264 0 -400.5 138.5t-136.5 408.5zM582 1612l202 358h215l-297 -358h-120z" />
<glyph unicode="&#xdb;" horiz-adv-x="1458" d="M182 522v963h213v-940q0 -201 76.5 -292t259.5 -91q184 0 259 91t75 292v940h211v-985q0 -258 -141.5 -391.5t-415.5 -133.5q-264 0 -400.5 138.5t-136.5 408.5zM430 1612l197 358h204l197 -358h-123l-176 231l-178 -231h-121z" />
<glyph unicode="&#xdc;" horiz-adv-x="1458" d="M182 522v963h213v-940q0 -201 76.5 -292t259.5 -91q184 0 259 91t75 292v940h211v-985q0 -258 -141.5 -391.5t-415.5 -133.5q-264 0 -400.5 138.5t-136.5 408.5zM467 1673v213h190v-213h-190zM801 1673v213h190v-213h-190z" />
<glyph unicode="&#xdd;" horiz-adv-x="1134" d="M18 1485h230l323 -656l324 656h219l-438 -875v-610h-215v608zM420 1612l203 358h215l-297 -358h-121z" />
<glyph unicode="&#xde;" horiz-adv-x="1261" d="M184 0v1485h213v-293h262q263 0 391 -102.5t128 -317.5q0 -206 -124.5 -317t-357.5 -111h-299v-344h-213zM397 524h234q174 0 252 56t78 194q0 132 -79.5 186t-256.5 54h-228v-490z" />
<glyph unicode="&#xdf;" horiz-adv-x="1073" d="M154 0v1073q0 197 101.5 304.5t285.5 107.5q180 0 278.5 -100.5t98.5 -284.5q0 -116 -44.5 -191.5t-123.5 -97.5q118 -23 184.5 -129t66.5 -272q0 -206 -92.5 -318t-259.5 -112q-106 0 -198 57l61 147q64 -43 119 -43q79 0 124.5 70.5t45.5 196.5q0 158 -72 232t-229 77 v153q109 5 166 61.5t57 160.5q0 107 -49.5 167t-136.5 60q-85 0 -137 -53t-52 -133v-1133h-194z" />
<glyph unicode="&#xe0;" horiz-adv-x="1040" d="M76 276q0 174 152.5 274.5t476.5 154.5v81q0 66 -52 106t-139 40q-161 0 -248 -146l-149 86q66 113 166.5 166.5t246.5 53.5q169 0 267 -84.5t98 -233.5v-612q0 -68 20 -150v-12h-196l-21 123q-149 -137 -329 -137q-135 0 -214 79t-79 211zM256 1554h215l203 -358h-121z M268 287q0 -66 41 -105t111 -39q121 0 280 144v264q-223 -39 -327.5 -101t-104.5 -163z" />
<glyph unicode="&#xe1;" horiz-adv-x="1040" d="M76 276q0 174 152.5 274.5t476.5 154.5v81q0 66 -52 106t-139 40q-161 0 -248 -146l-149 86q66 113 166.5 166.5t246.5 53.5q169 0 267 -84.5t98 -233.5v-612q0 -68 20 -150v-12h-196l-21 123q-149 -137 -329 -137q-135 0 -214 79t-79 211zM268 287q0 -66 41 -105 t111 -39q121 0 280 144v264q-223 -39 -327.5 -101t-104.5 -163zM379 1196l203 358h215l-297 -358h-121z" />
<glyph unicode="&#xe2;" horiz-adv-x="1040" d="M76 276q0 174 152.5 274.5t476.5 154.5v81q0 66 -52 106t-139 40q-161 0 -248 -146l-149 86q66 113 166.5 166.5t246.5 53.5q169 0 267 -84.5t98 -233.5v-612q0 -68 20 -150v-12h-196l-21 123q-149 -137 -329 -137q-135 0 -214 79t-79 211zM227 1196l197 358h205 l196 -358h-123l-176 231l-178 -231h-121zM268 287q0 -66 41 -105t111 -39q121 0 280 144v264q-223 -39 -327.5 -101t-104.5 -163z" />
<glyph unicode="&#xe3;" horiz-adv-x="1040" d="M76 276q0 174 152.5 274.5t476.5 154.5v81q0 66 -52 106t-139 40q-161 0 -248 -146l-149 86q66 113 166.5 166.5t246.5 53.5q169 0 267 -84.5t98 -233.5v-612q0 -68 20 -150v-12h-196l-21 123q-149 -137 -329 -137q-135 0 -214 79t-79 211zM223 1247q47 209 201 209 q41 0 72 -10l84 -27q33 -10 57 -10q70 0 94 78h96q-53 -215 -202 -215q-39 0 -68 10l-84 27q-29 10 -55 10q-70 0 -96 -72h-99zM268 287q0 -66 41 -105t111 -39q121 0 280 144v264q-223 -39 -327.5 -101t-104.5 -163z" />
<glyph unicode="&#xe4;" horiz-adv-x="1040" d="M76 276q0 174 152.5 274.5t476.5 154.5v81q0 66 -52 106t-139 40q-161 0 -248 -146l-149 86q66 113 166.5 166.5t246.5 53.5q169 0 267 -84.5t98 -233.5v-612q0 -68 20 -150v-12h-196l-21 123q-149 -137 -329 -137q-135 0 -214 79t-79 211zM264 1257v213h191v-213h-191z M268 287q0 -66 41 -105t111 -39q121 0 280 144v264q-223 -39 -327.5 -101t-104.5 -163zM598 1257v213h190v-213h-190z" />
<glyph unicode="&#xe5;" horiz-adv-x="1040" d="M76 276q0 174 152.5 274.5t476.5 154.5v81q0 66 -52 106t-139 40q-161 0 -248 -146l-149 86q66 113 166.5 166.5t246.5 53.5q169 0 267 -84.5t98 -233.5v-612q0 -68 20 -150v-12h-196l-21 123q-149 -137 -329 -137q-135 0 -214 79t-79 211zM268 287q0 -66 41 -105 t111 -39q121 0 280 144v264q-223 -39 -327.5 -101t-104.5 -163zM268 1432q0 107 74.5 181.5t181.5 74.5t181.5 -74.5t74.5 -181.5t-74.5 -181.5t-181.5 -74.5t-181.5 74.5t-74.5 181.5zM391 1432q0 -57 38 -95.5t95 -38.5t95 38.5t38 95.5q0 56 -38.5 94.5t-94.5 38.5 q-57 0 -95 -38t-38 -95z" />
<glyph unicode="&#xe6;" horiz-adv-x="1615" d="M53 274q0 172 156.5 276t478.5 150l2 80v4q0 70 -51.5 110t-140.5 40q-78 0 -142.5 -38.5t-107.5 -111.5l-152 86q135 220 398 220q207 0 319 -129q125 131 297 131q206 0 319 -142.5t113 -408.5v-41h-665v-15q0 -163 70.5 -253.5t195.5 -90.5q86 0 155 44t109 126 l141 -88q-130 -243 -422 -243q-125 0 -212 45.5t-148 144.5q-185 -188 -404 -188q-144 0 -226.5 79.5t-82.5 212.5zM250 283q0 -65 41.5 -104.5t114.5 -39.5q111 0 280 146v266q-226 -44 -331 -106.5t-105 -161.5zM881 651h462q-3 135 -65 211t-164 76q-104 0 -165.5 -75 t-67.5 -212z" />
<glyph unicode="&#xe7;" horiz-adv-x="974" d="M68 524q0 267 117.5 417.5t316.5 150.5q151 0 254 -73t153 -212l-174 -66q-29 92 -86 139.5t-137 47.5q-119 0 -183.5 -100t-64.5 -291q0 -392 250 -392q80 0 147 50t109 143l156 -82q-125 -274 -420 -274q-211 0 -324.5 140t-113.5 402zM266 -324q159 -38 252 -38 q111 0 111 77q0 47 -31.5 66.5t-101.5 19.5q-34 0 -52 -2v201h86v-98h21q112 0 170.5 -45.5t58.5 -130.5q0 -197 -256 -197q-101 0 -258 41v106z" />
<glyph unicode="&#xe8;" horiz-adv-x="997" d="M70 524q0 274 116 421t326 147q194 0 307 -141t113 -394q0 -9 -1 -27.5t-1 -27.5h-664v-21q0 -162 70.5 -250t198.5 -88q169 0 260 168l143 -88q-134 -243 -414 -243q-220 0 -337 139.5t-117 404.5zM238 1554h215l202 -358h-120zM268 651h465q-3 135 -64 210t-163 75 q-107 0 -169.5 -74t-68.5 -211z" />
<glyph unicode="&#xe9;" horiz-adv-x="997" d="M70 524q0 274 116 421t326 147q194 0 307 -141t113 -394q0 -9 -1 -27.5t-1 -27.5h-664v-21q0 -162 70.5 -250t198.5 -88q169 0 260 168l143 -88q-134 -243 -414 -243q-220 0 -337 139.5t-117 404.5zM268 651h465q-3 135 -64 210t-163 75q-107 0 -169.5 -74t-68.5 -211z M360 1196l203 358h215l-297 -358h-121z" />
<glyph unicode="&#xea;" horiz-adv-x="997" d="M70 524q0 274 116 421t326 147q194 0 307 -141t113 -394q0 -9 -1 -27.5t-1 -27.5h-664v-21q0 -162 70.5 -250t198.5 -88q169 0 260 168l143 -88q-134 -243 -414 -243q-220 0 -337 139.5t-117 404.5zM209 1196l197 358h204l197 -358h-123l-176 231l-178 -231h-121z M268 651h465q-3 135 -64 210t-163 75q-107 0 -169.5 -74t-68.5 -211z" />
<glyph unicode="&#xeb;" horiz-adv-x="997" d="M70 524q0 274 116 421t326 147q194 0 307 -141t113 -394q0 -9 -1 -27.5t-1 -27.5h-664v-21q0 -162 70.5 -250t198.5 -88q169 0 260 168l143 -88q-134 -243 -414 -243q-220 0 -337 139.5t-117 404.5zM246 1257v213h190v-213h-190zM268 651h465q-3 135 -64 210t-163 75 q-107 0 -169.5 -74t-68.5 -211zM580 1257v213h190v-213h-190z" />
<glyph unicode="&#xec;" horiz-adv-x="514" d="M-12 1554h215l203 -358h-121zM160 0v1073h196v-1073h-196z" />
<glyph unicode="&#xed;" horiz-adv-x="514" d="M111 1196l202 358h215l-297 -358h-120zM160 0v1073h196v-1073h-196z" />
<glyph unicode="&#xee;" horiz-adv-x="514" d="M-41 1196l197 358h204l197 -358h-123l-176 231l-178 -231h-121zM160 0v1073h196v-1073h-196z" />
<glyph unicode="&#xef;" horiz-adv-x="514" d="M-4 1257v213h190v-213h-190zM160 0v1073h196v-1073h-196zM330 1257v213h190v-213h-190z" />
<glyph unicode="&#xf0;" horiz-adv-x="1032" d="M63 510q0 247 121 385.5t330 138.5q56 0 102 -14q-66 95 -161 172l-238 -141l-57 90l202 121q-98 68 -202 116l55 127q156 -56 301 -153l236 141l57 -90l-205 -121q363 -311 363 -776q0 -249 -119.5 -387.5t-327.5 -138.5q-217 0 -337 138.5t-120 391.5zM262 510 q0 -185 64.5 -279t189.5 -94q124 0 189 93.5t65 275.5t-65 276.5t-189 94.5t-189 -93t-65 -274z" />
<glyph unicode="&#xf1;" horiz-adv-x="1112" d="M154 0v1073h178v-147q93 82 173.5 121.5t168.5 39.5q139 0 216 -82t77 -233v-772h-195v719q0 105 -38.5 156t-119.5 51q-126 0 -268 -142v-784h-192zM254 1247q47 209 201 209q40 0 71 -10l84 -27q33 -10 58 -10q70 0 94 78h96q-53 -215 -203 -215q-38 0 -67 10l-84 27 q-29 10 -55 10q-71 0 -97 -72h-98z" />
<glyph unicode="&#xf2;" horiz-adv-x="1032" d="M63 537q0 264 120 409.5t333 145.5t332 -145.5t119 -409.5q0 -265 -119 -411t-332 -146t-333 146.5t-120 410.5zM246 1554h215l203 -358h-121zM262 537q0 -193 64.5 -291.5t189.5 -98.5q124 0 189 98.5t65 289.5q0 193 -64.5 291t-189.5 98q-254 0 -254 -387z" />
<glyph unicode="&#xf3;" horiz-adv-x="1032" d="M63 537q0 264 120 409.5t333 145.5t332 -145.5t119 -409.5q0 -265 -119 -411t-332 -146t-333 146.5t-120 410.5zM262 537q0 -193 64.5 -291.5t189.5 -98.5q124 0 189 98.5t65 289.5q0 193 -64.5 291t-189.5 98q-254 0 -254 -387zM369 1196l202 358h215l-297 -358h-120z " />
<glyph unicode="&#xf4;" horiz-adv-x="1032" d="M63 537q0 264 120 409.5t333 145.5t332 -145.5t119 -409.5q0 -265 -119 -411t-332 -146t-333 146.5t-120 410.5zM217 1196l197 358h204l197 -358h-123l-176 231l-178 -231h-121zM262 537q0 -193 64.5 -291.5t189.5 -98.5q124 0 189 98.5t65 289.5q0 193 -64.5 291 t-189.5 98q-254 0 -254 -387z" />
<glyph unicode="&#xf5;" horiz-adv-x="1032" d="M63 537q0 264 120 409.5t333 145.5t332 -145.5t119 -409.5q0 -265 -119 -411t-332 -146t-333 146.5t-120 410.5zM213 1247q47 209 201 209q40 0 71 -10l84 -27q33 -10 58 -10q70 0 94 78h96q-53 -215 -203 -215q-38 0 -67 10l-84 27q-29 10 -55 10q-71 0 -97 -72h-98z M262 537q0 -193 64.5 -291.5t189.5 -98.5q124 0 189 98.5t65 289.5q0 193 -64.5 291t-189.5 98q-254 0 -254 -387z" />
<glyph unicode="&#xf6;" horiz-adv-x="1032" d="M63 537q0 264 120 409.5t333 145.5t332 -145.5t119 -409.5q0 -265 -119 -411t-332 -146t-333 146.5t-120 410.5zM254 1257v213h190v-213h-190zM262 537q0 -193 64.5 -291.5t189.5 -98.5q124 0 189 98.5t65 289.5q0 193 -64.5 291t-189.5 98q-254 0 -254 -387zM588 1257 v213h190v-213h-190z" />
<glyph unicode="&#xf7;" horiz-adv-x="1705" d="M254 541v139h1198v-139h-1198zM729 242q0 52 37 88.5t88 36.5t88 -36.5t37 -88.5q0 -51 -36.5 -88t-88.5 -37q-54 0 -89.5 36t-35.5 89zM729 979q0 52 37 89.5t88 37.5t88 -37.5t37 -89.5q0 -51 -36.5 -88t-88.5 -37t-88.5 36t-36.5 89z" />
<glyph unicode="&#xf8;" horiz-adv-x="1032" d="M63 528q0 273 120 418.5t343 145.5q110 0 205 -50l82 142l121 -72l-94 -158q127 -133 127 -417q0 -266 -120 -411.5t-337 -145.5q-110 0 -213 53l-96 -164l-121 70l106 184q-123 155 -123 405zM252 543q0 -148 41 -254l358 600q-53 39 -133 39q-131 0 -198.5 -97 t-67.5 -288zM375 184q73 -43 143 -43q264 0 264 410q0 163 -45 242z" />
<glyph unicode="&#xf9;" horiz-adv-x="1112" d="M145 299v774h195v-721q0 -107 37 -157t121 -50q127 0 266 142v786h194v-1073h-180v145q-92 -82 -174 -121.5t-170 -39.5q-137 0 -213 82t-76 233zM287 1554h215l203 -358h-121z" />
<glyph unicode="&#xfa;" horiz-adv-x="1112" d="M145 299v774h195v-721q0 -107 37 -157t121 -50q127 0 266 142v786h194v-1073h-180v145q-92 -82 -174 -121.5t-170 -39.5q-137 0 -213 82t-76 233zM410 1196l202 358h215l-297 -358h-120z" />
<glyph unicode="&#xfb;" horiz-adv-x="1112" d="M145 299v774h195v-721q0 -107 37 -157t121 -50q127 0 266 142v786h194v-1073h-180v145q-92 -82 -174 -121.5t-170 -39.5q-137 0 -213 82t-76 233zM258 1196l197 358h204l197 -358h-123l-176 231l-178 -231h-121z" />
<glyph unicode="&#xfc;" horiz-adv-x="1112" d="M145 299v774h195v-721q0 -107 37 -157t121 -50q127 0 266 142v786h194v-1073h-180v145q-92 -82 -174 -121.5t-170 -39.5q-137 0 -213 82t-76 233zM295 1257v213h190v-213h-190zM629 1257v213h190v-213h-190z" />
<glyph unicode="&#xfd;" horiz-adv-x="956" d="M16 1073h195l278 -790l254 790h193l-354 -1057q-29 -86 -53.5 -145t-58 -112t-72.5 -83t-92 -47.5t-120 -17.5q-70 0 -114 12v170q39 -10 94 -10q99 0 151 55.5t80 184.5zM332 1196l203 358h215l-297 -358h-121z" />
<glyph unicode="&#xfe;" horiz-adv-x="1112" d="M154 -389v1874h196v-514q101 119 262 119q200 0 317.5 -149.5t117.5 -414.5q0 -257 -118 -400.5t-321 -143.5q-162 0 -262 127v-498h-192zM344 272q110 -131 240 -131q126 0 195 100t69 287q0 195 -69.5 296.5t-200.5 101.5q-130 0 -234 -131v-523z" />
<glyph unicode="&#xff;" horiz-adv-x="956" d="M16 1073h195l278 -790l254 790h193l-354 -1057q-29 -86 -53.5 -145t-58 -112t-72.5 -83t-92 -47.5t-120 -17.5q-70 0 -114 12v170q39 -10 94 -10q99 0 151 55.5t80 184.5zM217 1257v213h191v-213h-191zM551 1257v213h190v-213h-190z" />
<glyph unicode="&#x152;" horiz-adv-x="1949" d="M78 741q0 362 155 563t424 201q211 0 338 -153v133h860v-185h-653v-432h463v-182h-463v-496h686v-190h-893v139q-118 -164 -342 -164q-265 0 -420 202t-155 564zM297 741q0 -279 97.5 -427t275.5 -148q79 0 139.5 28.5t114.5 90.5q32 38 49.5 78.5t17.5 68.5v617 q0 24 -19.5 70t-53.5 85q-98 113 -248 113q-180 0 -276.5 -147.5t-96.5 -428.5z" />
<glyph unicode="&#x153;" horiz-adv-x="1693" d="M63 535q0 264 120.5 410.5t332.5 146.5q226 0 348 -177q123 172 334 172q203 0 315.5 -142.5t112.5 -405.5v-41h-665v-25q0 -159 70.5 -245.5t195.5 -86.5q178 0 264 168l141 -90q-130 -242 -411 -242q-126 0 -212 41.5t-147 135.5q-123 -172 -344 -172 q-214 0 -334.5 144.5t-120.5 408.5zM262 537q0 -192 65 -291t189 -99q125 0 189.5 98t64.5 290t-65 290.5t-189 98.5t-189 -98t-65 -289zM965 649h462q-3 134 -65 209.5t-164 75.5q-106 0 -167.5 -74.5t-65.5 -210.5z" />
<glyph unicode="&#x178;" horiz-adv-x="1134" d="M18 1485h230l323 -656l324 656h219l-438 -875v-610h-215v608zM305 1673v213h191v-213h-191zM639 1673v213h190v-213h-190z" />
<glyph unicode="&#x2c6;" d="M213 1196l197 358h204l197 -358h-123l-176 231l-178 -231h-121z" />
<glyph unicode="&#x2dc;" d="M209 1247q47 209 201 209q40 0 71 -10l84 -27q33 -10 58 -10q70 0 94 78h96q-53 -215 -203 -215q-38 0 -67 10l-84 27q-29 10 -56 10q-70 0 -96 -72h-98z" />
<glyph unicode="&#x2000;" horiz-adv-x="986" />
<glyph unicode="&#x2001;" horiz-adv-x="1972" />
<glyph unicode="&#x2002;" horiz-adv-x="986" />
<glyph unicode="&#x2003;" horiz-adv-x="1972" />
<glyph unicode="&#x2004;" horiz-adv-x="657" />
<glyph unicode="&#x2005;" horiz-adv-x="493" />
<glyph unicode="&#x2006;" horiz-adv-x="328" />
<glyph unicode="&#x2007;" horiz-adv-x="328" />
<glyph unicode="&#x2008;" horiz-adv-x="246" />
<glyph unicode="&#x2009;" horiz-adv-x="394" />
<glyph unicode="&#x200a;" horiz-adv-x="109" />
<glyph unicode="&#x2010;" horiz-adv-x="675" d="M92 449v174h481v-174h-481z" />
<glyph unicode="&#x2011;" horiz-adv-x="675" d="M92 449v174h481v-174h-481z" />
<glyph unicode="&#x2012;" horiz-adv-x="675" d="M92 449v174h481v-174h-481z" />
<glyph unicode="&#x2013;" d="M0 467v137h1024v-137h-1024z" />
<glyph unicode="&#x2014;" horiz-adv-x="2048" d="M0 467v137h2048v-137h-2048z" />
<glyph unicode="&#x2018;" horiz-adv-x="512" d="M141 920v260l129 305h115l-106 -318h96v-247h-234z" />
<glyph unicode="&#x2019;" horiz-adv-x="512" d="M125 920l108 317h-98v248h234v-260l-127 -305h-117z" />
<glyph unicode="&#x201a;" horiz-adv-x="512" d="M127 -313l106 317h-96v248h234v-260l-129 -305h-115z" />
<glyph unicode="&#x201c;" horiz-adv-x="858" d="M115 920v260l129 305h114l-106 -318h96v-247h-233zM518 920v260l129 305h115l-107 -318h97v-247h-234z" />
<glyph unicode="&#x201d;" horiz-adv-x="858" d="M100 920l107 317h-96v248h233v-260l-129 -305h-115zM500 920l106 317h-96v248h233v-260l-129 -305h-114z" />
<glyph unicode="&#x201e;" horiz-adv-x="858" d="M100 -317l107 317h-96v248h233v-260l-129 -305h-115zM500 -317l106 317h-96v248h233v-260l-129 -305h-114z" />
<glyph unicode="&#x2022;" horiz-adv-x="1208" d="M307 762q0 123 87 209t210 86q122 0 208.5 -86t86.5 -209q0 -122 -87 -209.5t-210 -87.5t-209 87t-86 210z" />
<glyph unicode="&#x2026;" horiz-adv-x="2048" d="M225 0v256h234v-256h-234zM907 0v256h234v-256h-234zM1591 0v256h234v-256h-234z" />
<glyph unicode="&#x202f;" horiz-adv-x="394" />
<glyph unicode="&#x2039;" horiz-adv-x="688" d="M98 537l254 319h187l-250 -319l248 -322h-191z" />
<glyph unicode="&#x203a;" horiz-adv-x="688" d="M143 213l252 322l-248 321h191l248 -321l-254 -322h-189z" />
<glyph unicode="&#x205f;" horiz-adv-x="493" />
<glyph unicode="&#x20ac;" horiz-adv-x="1236" d="M0 549l29 113h121q-3 40 -3 79q0 19 5 101h-152l29 112h131q37 271 168.5 411t347.5 140q182 0 301 -97.5t162 -293.5l-185 -49q-70 266 -282 266q-122 0 -199.5 -96.5t-105.5 -280.5h546l-32 -112h-525q-4 -66 -4 -103q0 -52 2 -77h471l-30 -113h-430 q26 -194 108 -295.5t207 -101.5q110 0 189.5 75t109.5 213l186 -51q-97 -414 -491 -414q-219 0 -351.5 146t-164.5 428h-158z" />
<glyph unicode="&#x2122;" horiz-adv-x="1705" d="M242 1378v80h452v-80h-172v-458h-108v458h-172zM813 920v538h150l151 -385l141 385h150v-538h-98v444l-166 -444h-56l-174 444v-444h-98z" />
<glyph unicode="&#xe000;" horiz-adv-x="1075" d="M0 0v1075h1075v-1075h-1075z" />
<glyph unicode="&#xfb01;" horiz-adv-x="1062" d="M4 909v164h168v156q0 134 71 205t206 71q57 0 139 -16v-162q-65 10 -99 10q-67 0 -95.5 -31.5t-28.5 -103.5v-129h217v-164h-215v-909h-195v909h-168zM707 1278v207h208v-207h-208zM713 0v1073h196v-1073h-196z" />
<glyph unicode="&#xfb02;" horiz-adv-x="1062" d="M4 909v164h168v156q0 134 71 205t206 71q57 0 139 -16v-162q-65 10 -99 10q-67 0 -95.5 -31.5t-28.5 -103.5v-129h217v-164h-215v-909h-195v909h-168zM717 0v1485h194v-1485h-194z" />
</font>
</defs>
</svg>
